<svg width="144" height="144" viewBox="0 0 144 144" fill="none" xmlns="http://www.w3.org/2000/svg">
<g clip-path="url(#clip0_12_2)">
<rect width="144" height="144" fill="#EAEA00"/>
<mask id="path-1-outside-1_12_2" maskUnits="userSpaceOnUse" x="-10.2164" y="3.15135" width="166.066" height="131.742" fill="black">
<rect fill="white" x="-10.2164" y="3.15135" width="166.066" height="131.742"/>
<path d="M3.34688 49.1375L7.75612 38.7875L56.9409 38.1504L51.8427 50.1175L19.1178 49.4554L18.8767 50.0214L42.0425 73.1219L36.9788 85.0081L3.34688 49.1375ZM102.973 39.4186L52.8404 103.277L42.0458 98.6786L92.1788 34.8198L102.973 39.4186ZM134.742 105.114L85.5749 105.711L90.6387 93.8247L123.387 94.5444L123.628 93.9784L100.439 70.8203L105.537 58.8532L139.152 94.7643L134.742 105.114Z"/>
</mask>
<path d="M3.34688 49.1375L7.75612 38.7875L56.9409 38.1504L51.8427 50.1175L19.1178 49.4554L18.8767 50.0214L42.0425 73.1219L36.9788 85.0081L3.34688 49.1375ZM102.973 39.4186L52.8404 103.277L42.0458 98.6786L92.1788 34.8198L102.973 39.4186ZM134.742 105.114L85.5749 105.711L90.6387 93.8247L123.387 94.5444L123.628 93.9784L100.439 70.8203L105.537 58.8532L139.152 94.7643L134.742 105.114Z" fill="#FF82BC"/>
<path d="M3.34688 49.1375L2.42688 48.7455L2.17124 49.3456L2.61737 49.8214L3.34688 49.1375ZM7.75612 38.7875L7.74317 37.7876L7.09154 37.7961L6.83613 38.3956L7.75612 38.7875ZM56.9409 38.1504L57.8609 38.5424L58.4623 37.1306L56.928 37.1505L56.9409 38.1504ZM51.8427 50.1175L51.8225 51.1173L52.4979 51.131L52.7627 50.5095L51.8427 50.1175ZM19.1178 49.4554L19.1381 48.4556L18.4626 48.4419L18.1978 49.0635L19.1178 49.4554ZM18.8767 50.0214L17.9567 49.6295L17.6916 50.2518L18.1706 50.7295L18.8767 50.0214ZM42.0425 73.1219L42.9625 73.5138L43.2276 72.8914L42.7486 72.4138L42.0425 73.1219ZM36.9788 85.0081L36.2492 85.6921L37.2979 86.8105L37.8987 85.4001L36.9788 85.0081ZM3.34688 49.1375L4.26687 49.5294L8.67612 39.1795L7.75612 38.7875L6.83613 38.3956L2.42688 48.7455L3.34688 49.1375ZM7.75612 38.7875L7.76908 39.7875L56.9539 39.1503L56.9409 38.1504L56.928 37.1505L7.74317 37.7876L7.75612 38.7875ZM56.9409 38.1504L56.0209 37.7585L50.9227 49.7256L51.8427 50.1175L52.7627 50.5095L57.8609 38.5424L56.9409 38.1504ZM51.8427 50.1175L51.863 49.1177L19.1381 48.4556L19.1178 49.4554L19.0976 50.4552L51.8225 51.1173L51.8427 50.1175ZM19.1178 49.4554L18.1978 49.0635L17.9567 49.6295L18.8767 50.0214L19.7967 50.4133L20.0378 49.8473L19.1178 49.4554ZM18.8767 50.0214L18.1706 50.7295L41.3364 73.83L42.0425 73.1219L42.7486 72.4138L19.5828 49.3133L18.8767 50.0214ZM42.0425 73.1219L41.1225 72.7299L36.0588 84.6162L36.9788 85.0081L37.8987 85.4001L42.9625 73.5138L42.0425 73.1219ZM36.9788 85.0081L37.7083 84.3241L4.07638 48.4535L3.34688 49.1375L2.61737 49.8214L36.2492 85.6921L36.9788 85.0081ZM102.973 39.4186L103.76 40.0361L104.566 39.0099L103.365 38.4986L102.973 39.4186ZM52.8404 103.277L52.4485 104.197L53.1537 104.498L53.627 103.895L52.8404 103.277ZM42.0458 98.6786L41.2592 98.0611L40.4536 99.0873L41.6538 99.5986L42.0458 98.6786ZM92.1788 34.8198L92.5707 33.8999L91.8656 33.5994L91.3922 34.2023L92.1788 34.8198ZM102.973 39.4186L102.187 38.801L52.0539 102.66L52.8404 103.277L53.627 103.895L103.76 40.0361L102.973 39.4186ZM52.8404 103.277L53.2324 102.357L42.4377 97.7586L42.0458 98.6786L41.6538 99.5986L52.4485 104.197L52.8404 103.277ZM42.0458 98.6786L42.8323 99.2961L92.9654 35.4374L92.1788 34.8198L91.3922 34.2023L41.2592 98.0611L42.0458 98.6786ZM92.1788 34.8198L91.7869 35.7398L102.582 40.3385L102.973 39.4186L103.365 38.4986L92.5707 33.8999L92.1788 34.8198ZM134.742 105.114L134.755 106.114L135.407 106.106L135.662 105.506L134.742 105.114ZM85.5749 105.711L84.6549 105.319L84.054 106.729L85.587 106.711L85.5749 105.711ZM90.6387 93.8247L90.6606 92.8249L89.9839 92.81L89.7187 93.4327L90.6387 93.8247ZM123.387 94.5444L123.365 95.5442L124.041 95.5591L124.307 94.9364L123.387 94.5444ZM123.628 93.9784L124.548 94.3704L124.813 93.7485L124.335 93.2709L123.628 93.9784ZM100.439 70.8203L99.5189 70.4284L99.254 71.0503L99.7323 71.5279L100.439 70.8203ZM105.537 58.8532L106.267 58.1698L105.219 57.0496L104.617 58.4613L105.537 58.8532ZM139.152 94.7643L140.072 95.1562L140.327 94.5567L139.882 94.0809L139.152 94.7643ZM134.742 105.114L134.73 104.114L85.5628 104.711L85.5749 105.711L85.587 106.711L134.755 106.114L134.742 105.114ZM85.5749 105.711L86.4949 106.103L91.5586 94.2166L90.6387 93.8247L89.7187 93.4327L84.6549 105.319L85.5749 105.711ZM90.6387 93.8247L90.6167 94.8244L123.365 95.5442L123.387 94.5444L123.409 93.5447L90.6606 92.8249L90.6387 93.8247ZM123.387 94.5444L124.307 94.9364L124.548 94.3704L123.628 93.9784L122.708 93.5865L122.467 94.1525L123.387 94.5444ZM123.628 93.9784L124.335 93.2709L101.146 70.1127L100.439 70.8203L99.7323 71.5279L122.921 94.686L123.628 93.9784ZM100.439 70.8203L101.359 71.2122L106.457 59.2451L105.537 58.8532L104.617 58.4613L99.5189 70.4284L100.439 70.8203ZM105.537 58.8532L104.807 59.5366L138.422 95.4477L139.152 94.7643L139.882 94.0809L106.267 58.1698L105.537 58.8532ZM139.152 94.7643L138.232 94.3724L133.822 104.722L134.742 105.114L135.662 105.506L140.072 95.1562L139.152 94.7643Z" fill="#303030" mask="url(#path-1-outside-1_12_2)"/>
</g>
<defs>
<clipPath id="clip0_12_2">
<rect width="144" height="144" fill="white"/>
</clipPath>
</defs>
</svg>
